<svg height="1014" width="1015" viewBox="0 0 1015 1014" xmlns="http://www.w3.org/2000/svg" version="1.2">
	<title>HOD_favicon_430x-svg</title>
	<style>
		.s0 { fill: #000000 } 
		.s1 { fill: #ffffff } 
		.s2 { fill: #1d705b } 
	</style>
	<g id="Layer 1">
		<path d="m-104-60h1253v1180h-1253zm104 1074h1015v-1014h-1015z" class="s0" fill-rule="evenodd" id="Path 0"></path>
		<path d="m5-9.5v9.5h1005v-19h-1005zm0 1033.5v10h1005v-20h-1005z" class="s1" id="Path 1"></path>
		<path d="m474 5.6c-2.5 0.2-9.2 0.8-15 1.4-5.8 0.6-15.5 1.8-21.5 2.6-6 0.9-14.6 2.2-19 2.9-4.4 0.8-11.4 2.1-15.5 3-4.1 0.9-13.6 3.1-21 5-7.4 1.8-20.9 5.8-30 8.8-9.1 3-17.9 6.1-19.5 6.7-1.6 0.7-3.9 1.6-5 2-1.1 0.4-7.9 3.2-15 6.1-7.1 2.9-21.1 9.4-31 14.5-9.9 5-20.7 10.7-24 12.6-3.3 1.9-8 4.7-10.5 6.3-2.5 1.5-9.7 6.2-16 10.3-6.3 4.2-15.8 10.7-21 14.6-5.2 3.8-13.6 10.2-18.5 14.1-4.9 4-14.2 11.9-20.5 17.7-6.3 5.8-14.8 13.8-18.9 17.9-4.1 4.1-11.7 12.1-17 17.9-5.3 5.8-13.3 15-17.7 20.5-4.4 5.5-11.2 14.3-15.1 19.5-3.8 5.2-10.8 15.4-15.4 22.5-4.7 7.1-9.4 14.4-10.4 16-1 1.6-4.5 7.7-7.8 13.5-3.2 5.8-9.3 17.7-13.6 26.5-4.3 8.8-9.7 20.7-12.1 26.5-2.3 5.8-4.6 11.4-5 12.5-0.4 1.1-1.3 3.4-2 5-0.6 1.6-3.7 10.4-6.7 19.5-3 9.1-7 22.8-9 30.5-1.9 7.7-4.1 17.4-5 21.5-0.8 4.1-1.9 9.8-2.4 12.5-0.5 2.8-1.8 11.1-2.8 18.5-1.1 7.4-2.6 18.2-3.3 24-0.9 7-1.3 23.1-1.3 48.5 0 24.9 0.4 41.8 1.3 49 0.7 6 2 15.7 2.8 21.5 0.9 5.8 2.2 14.1 2.9 18.5 0.8 4.4 2.1 11.4 3 15.5 0.9 4.1 2.5 11.3 3.6 16 1.2 4.7 3.7 13.9 5.6 20.5 1.9 6.6 5 16.3 6.8 21.5 1.9 5.2 4.5 12.4 5.8 16 1.3 3.6 4.8 12.1 7.6 19 2.9 6.9 9.7 21 15 31.5 5.4 10.5 13.5 25.1 18 32.5 4.6 7.4 11.3 17.8 14.9 23 3.6 5.2 10.7 14.9 15.7 21.5 5.1 6.6 13.5 17 18.7 23 5.3 6 15.6 17.1 23 24.5 7.4 7.4 15.6 15.6 18.4 18.1 2.7 2.5 9.4 8.3 15 13 5.5 4.6 12.9 10.6 16.5 13.4 3.5 2.7 8 6.1 9.9 7.6 1.9 1.4 7.8 5.5 13 9.1 5.2 3.6 14.2 9.5 20 13 5.8 3.6 14.3 8.7 19 11.3 4.7 2.7 15.5 8.3 24 12.6 8.5 4.2 20.4 9.7 26.5 12.2 6.1 2.5 15.3 6.1 20.5 8 5.2 2 14.9 5.4 21.5 7.6 6.6 2.1 17.2 5.3 23.5 6.9 6.3 1.7 16.9 4.1 23.5 5.5 6.6 1.4 14.7 3 18 3.6 3.3 0.6 10.5 1.7 16 2.5 5.5 0.8 14.7 2.1 20.5 2.8 7.1 0.9 23.9 1.3 51.5 1.3 27.4 0 44.5-0.4 51.5-1.3 5.8-0.7 16.4-2.1 23.5-3.2 7.1-1.1 18.6-3.1 25.5-4.4 6.9-1.4 18.8-4.2 26.5-6.1 7.7-2 22.1-6.3 32-9.6 9.9-3.4 24.5-8.8 32.5-12.1 8-3.3 21.5-9.4 30-13.6 8.5-4.2 21.1-10.8 28-14.8 6.9-3.9 16.1-9.5 20.5-12.4 4.4-2.8 11.4-7.5 15.5-10.3 4.1-2.8 11.1-7.8 15.5-11.1 4.4-3.3 8.2-6.2 8.5-6.6 0.3-0.3 3.6-3 7.5-6 3.8-3 8-6.4 9.3-7.5 1.3-1.1 5.8-5.1 10-9 4.2-3.8 13.3-12.5 20.2-19.5 6.9-6.9 15.2-15.5 18.5-19.2 3.3-3.6 7.4-8.3 9-10.4 1.6-2 4.5-5.5 6.3-7.8 1.9-2.3 4.2-5.1 5.3-6.3 1-1.3 5.2-6.7 9.2-12 4-5.4 9.7-13.6 12.8-18.3 3.1-4.7 7.6-11.6 10.1-15.5 2.4-3.9 6-9.7 7.9-13 1.8-3.3 4.4-7.8 5.6-10 1.3-2.2 5.8-11.2 10.2-20 4.4-8.8 10.4-21.9 13.4-29 3-7.1 8.4-21.8 12-32.5 3.6-10.7 8.2-25.8 10.2-33.5 1.9-7.7 4.7-19.6 6.1-26.5 1.3-6.9 3.3-18.4 4.4-25.5 1.1-7.1 2.4-17.4 3-22.7 0.5-5.4 1.1-11.9 1.1-14.5l0.2-4.8c1.1 6.2 1.5-8.5 1.6-28.7 0.1-24-0.2-36.8-0.9-36.8-0.5 0-1-2.4-1-5.3 0-2.8-0.7-10.8-1.5-17.7-0.8-6.9-2.1-17.2-3-23-0.9-5.8-2.5-15-3.6-20.5-1.1-5.5-3.8-17.2-6-26-2.2-8.8-5.8-21.4-8-28-2.2-6.6-5.6-16.3-7.6-21.5-1.9-5.2-5.5-14.4-8-20.5-2.4-6.1-7.9-18-12.2-26.5-4.3-8.5-9.9-19.3-12.6-24-2.6-4.7-7.7-13.2-11.3-19-3.5-5.8-9.4-14.8-13-20-3.6-5.2-7.7-11.1-9.1-13-1.5-1.9-4.9-6.4-7.6-9.9-2.8-3.6-8.8-11-13.4-16.5-4.7-5.6-10.5-12.3-13-15-2.5-2.8-10.7-11-18.1-18.4-7.4-7.4-18.5-17.7-24.5-23-6-5.2-16.4-13.6-23-18.6-6.6-5.1-17-12.6-23-16.8-6-4.1-16.4-10.8-23-14.8-6.6-4-19.6-11.3-29-16.1-9.4-4.8-21.7-10.9-27.5-13.4-5.8-2.6-14.1-6-18.5-7.6-4.4-1.7-9.1-3.5-10.5-4.1-1.4-0.5-6.8-2.5-12-4.3-5.2-1.8-14.9-4.9-21.5-6.8-6.6-1.9-15.8-4.4-20.5-5.6-4.7-1.1-11.9-2.7-16-3.6-4.1-0.9-10-2-13-2.6-3-0.5-10-1.6-15.5-2.5-5.5-0.8-15.6-2.2-22.5-3-8.4-1.1-24-1.7-47.5-1.9-19.2-0.1-37-0.1-39.5 0.1z" class="s2" id="Path 2"></path>
		<path d="m479.5 38.6c-3.3 0.2-11.2 0.8-17.5 1.5-6.3 0.6-17.1 1.9-24 2.9-6.9 1-17.2 2.8-23 4-5.8 1.2-15 3.2-20.5 4.6-5.5 1.4-14.5 3.9-20 5.5-5.5 1.7-14.5 4.6-20 6.4-5.5 1.9-14.9 5.4-21 7.8-6.1 2.4-15.3 6.4-20.5 8.8-5.2 2.4-16.7 8.2-25.5 12.8-8.8 4.6-18.5 9.9-21.5 11.8-3 2-11.1 7.3-18 11.8-6.9 4.6-16.6 11.3-21.5 15.1-4.9 3.7-13.9 10.9-20 15.9-6.1 5-15 12.9-19.9 17.6-4.9 4.6-12.4 12-16.6 16.4-4.3 4.4-10.5 11.2-14 15-3.4 3.9-10.6 12.4-15.9 19-5.3 6.7-13.4 17.6-18.1 24.3-4.7 6.7-10.4 15.3-12.7 19-2.4 3.7-6.7 11-9.7 16.2-2.9 5.2-7.9 14.4-10.9 20.5-3.1 6.1-7.3 14.8-9.5 19.5-2.2 4.7-6 13.7-8.5 20-2.5 6.3-5.5 14.2-6.6 17.5-1.2 3.3-3.9 11.9-6 19-2.2 7.1-5.1 17.5-6.5 23-1.4 5.5-3.4 14.7-4.6 20.5-1.2 5.8-2.8 14.8-3.6 20-0.8 5.2-2.2 15.8-3.1 23.5-1.3 10.7-1.7 22.4-1.7 49.5 0 26.9 0.5 38.8 1.7 49 0.9 7.4 2.3 17.8 3.1 23 0.8 5.2 2.6 15.4 4.1 22.5 1.5 7.1 3.8 17.3 5.2 22.5 1.3 5.2 3.6 13.1 4.9 17.5 1.4 4.4 4.1 12.7 6.1 18.5 1.9 5.8 6 16.6 9 24 3 7.4 9.3 21.4 14.1 31 4.8 9.6 11.6 22.5 15.2 28.5 3.6 6 10.2 16.4 14.6 23 4.4 6.6 10.7 15.5 14 19.9 3.2 4.3 6.8 9 7.9 10.5 1.1 1.5 5.2 6.5 9.1 11.2 3.9 4.6 11.3 12.9 16.4 18.4 5.1 5.5 12 12.6 15.4 15.8 3.3 3.2 8.4 8 11.1 10.6 2.8 2.6 9.3 8.3 14.5 12.7 5.2 4.5 14.2 11.7 20 16 5.8 4.4 14.6 10.7 19.5 14.1 4.9 3.3 14.4 9.3 21 13.3 6.6 4 20.6 11.7 31 17 10.4 5.3 22.6 11.1 27 12.9 4.4 1.7 8.9 3.6 10 4 1.1 0.5 3.8 1.6 6 2.4 2.2 0.9 7.4 2.7 11.5 4.2 4.1 1.5 8.6 3.1 10 3.5 1.4 0.5 7 2.2 12.5 3.9 5.5 1.6 14.3 4.1 19.5 5.5 5.2 1.3 15.4 3.6 22.5 5 7.1 1.3 17.7 3.2 23.5 4 5.8 0.9 15 2 20.5 2.6 5.5 0.6 18.5 1.4 29 2 12.4 0.6 25.9 0.6 39-0.1 11-0.5 25.9-1.6 33-2.5 7.1-0.8 19.8-2.6 28-4 8.3-1.4 22.2-4.2 31-6.4 8.8-2.2 24.3-6.7 34.5-10 10.2-3.4 24.4-8.6 31.5-11.5 7.1-2.9 20-8.8 28.5-13 8.5-4.3 19.1-9.8 23.5-12.2 4.4-2.5 13.4-7.9 20-12.1 6.6-4.1 15.8-10.2 20.5-13.6 4.7-3.3 14.9-11.1 22.8-17.3 7.8-6.2 17.7-14.5 22-18.5 4.2-3.9 14.1-13.7 22-21.7 7.9-8 20.3-22 27.6-31.1 7.3-9.1 15.9-20.3 19.3-25 3.3-4.7 9.4-13.9 13.5-20.5 4.2-6.6 9.6-15.6 12.1-20 2.4-4.4 7.9-15 12.2-23.5 4.2-8.5 10.1-21.4 13-28.5 2.9-7.1 7.9-20.6 11-30 3.1-9.4 7.1-22.9 9-30 1.8-7.1 4.2-17.5 5.4-23 1.1-5.5 2.9-15.9 4-23 1-7.1 2.4-17.5 3-23 0.6-5.5 1.6-18.8 2.1-29.5 0.6-12.5 0.6-26.3 0-38.5-0.6-10.5-1.4-23.5-2-29-0.6-5.5-1.7-14.7-2.6-20.5-0.8-5.8-2.5-15.2-3.6-21-1-5.8-3-15-4.3-20.5-1.3-5.5-4.2-15.9-6.4-23-2.1-7.1-5.5-17.5-7.4-23-1.9-5.5-4-11.4-4.7-13-0.7-1.6-1.6-3.9-2.1-5-0.4-1.1-2.2-5.6-4-10-1.8-4.4-7.6-16.6-12.9-27-5.4-10.4-13-24.4-17-31-4-6.6-10.3-16.5-14.1-22-3.7-5.5-10.1-14.3-14.1-19.6-4-5.3-12.1-15.2-18-22-5.9-6.8-14.9-16.7-20-22-5.1-5.2-14-13.8-19.8-19.1-5.8-5.2-13.4-12-17-14.9-3.6-3-7.7-6.3-9.1-7.4-1.5-1.1-6.2-4.7-10.5-7.9-4.4-3.3-13.8-9.9-20.9-14.6-7.1-4.8-16.8-10.9-21.5-13.7-4.7-2.8-14.1-8-21-11.5-6.9-3.6-17.7-8.9-24-11.7-6.3-2.9-16.2-7.1-22-9.3-5.8-2.2-14.3-5.3-19-6.8-4.7-1.6-12.1-4-16.5-5.4-4.4-1.3-12.3-3.6-17.5-4.9-5.2-1.4-16.3-3.9-24.5-5.5-8.3-1.7-18.4-3.5-22.5-4.1-4.1-0.6-13.1-1.8-20-2.6-7.6-1-24.3-1.7-42.5-1.9-16.5-0.2-32.7-0.2-36 0z" class="s1" id="Path 3"></path>
		<path d="m471.5 71.1c-4.4 0.4-13.9 1.5-21 2.4-7.1 0.9-16.6 2.3-21 3.1-4.4 0.8-10.9 2.2-14.5 3-3.6 0.8-11.9 2.8-18.5 4.5-6.6 1.7-19.2 5.4-28 8.3-8.8 2.9-21.6 7.7-28.5 10.5-6.9 2.9-19.5 8.7-28 13-8.5 4.2-19.6 10.1-24.5 13.1-4.9 2.9-15.3 9.5-23 14.6-7.7 5.2-17.6 12.1-22 15.5-4.4 3.4-11.6 9.2-16 12.9-4.4 3.6-10.7 9.1-14 12.1-3.2 3-9.8 9.2-14.5 13.9-4.7 4.7-11.9 12.4-16.1 17-4.2 4.7-9.7 11-12.1 14-2.5 3-7.3 9.1-10.7 13.5-3.4 4.4-10.4 14.3-15.5 22-5.1 7.7-11.7 18.1-14.6 23-3 4.9-8.9 16-13.1 24.5-4.3 8.5-10 20.9-12.7 27.5-2.8 6.6-7.5 19.4-10.6 28.5-3 9.1-6.8 21.9-8.5 28.5-1.6 6.6-3.7 14.9-4.5 18.5-0.8 3.6-2.2 10.1-3 14.5-0.8 4.4-2.2 13.6-3 20.5-0.9 6.9-2 17.5-2.6 23.5-0.5 6-1 21.6-1 34.5 0 13.7 0.6 30 1.5 39 0.9 8.5 2.2 20 3 25.5 0.8 5.5 2.2 13.6 3 18 0.9 4.4 3.2 14.5 5.1 22.5 2 8 4.7 18.1 6.1 22.5 1.4 4.4 4.1 12.5 6 18 1.9 5.5 5.7 15.4 8.5 22 2.7 6.6 8.3 18.8 12.3 27 4.1 8.3 8.9 17.5 10.7 20.6 1.8 3 5.2 8.7 7.5 12.5 2.2 3.8 7.4 11.9 11.5 17.9 4.1 6 10.7 15.3 14.8 20.5 4.1 5.2 9.7 12.2 12.4 15.5 2.8 3.3 7.8 8.8 11.1 12.3 3.3 3.5 6.3 7 6.7 7.8 0.5 0.8 8.1 8.2 17 16.5 9 8.4 22.3 19.9 29.5 25.5 7.3 5.7 17.7 13.4 23 17.1 5.4 3.7 15.7 10.3 22.8 14.6 7.1 4.3 21.3 11.9 31.5 16.9 10.2 5 19.4 9.4 20.5 9.9 1.1 0.5 6.1 2.5 11 4.5 4.9 2 15.7 5.8 24 8.6 8.2 2.7 20.9 6.4 28 8.3 7.1 1.8 18.6 4.5 25.5 5.8 6.9 1.4 19.9 3.6 29 4.8 13.2 1.8 23 2.3 49 2.7 25.9 0.3 35.7 0.1 48.5-1.3 8.8-0.9 20.3-2.3 25.5-3.1 5.2-0.7 12-1.9 15-2.5 3-0.6 10.2-2.2 16-3.6 5.8-1.3 15.5-3.8 21.5-5.4 6-1.7 12.8-3.7 15-4.4 2.2-0.8 9-3.1 15-5.3 6-2.2 13.9-5.2 17.5-6.7 3.6-1.5 9.4-4.1 13-5.7 3.6-1.6 12.4-5.9 19.5-9.5 7.1-3.6 17.5-9.2 23-12.6 5.5-3.3 14-8.7 19-12 5-3.3 10.3-7 12-8.1 1.6-1.2 7-5.2 12-9 4.9-3.8 12.8-10.1 17.5-14 4.7-3.8 16.4-14.9 26-24.6 9.7-9.6 20.8-21.3 24.6-26 3.9-4.7 10.2-12.5 14-17.5 3.9-5 10.6-14.4 15.1-21 4.4-6.6 10.7-16.5 14-22 3.4-5.5 9-15.9 12.6-23 3.6-7.1 7.9-15.9 9.5-19.5 1.6-3.6 4.2-9.4 5.7-13 1.5-3.6 4.5-11.5 6.7-17.5 2.2-6 5.5-16.2 7.4-22.5 1.9-6.3 5-17.8 6.8-25.5 1.9-7.7 3.9-16.5 4.5-19.5 0.6-3 1.8-9.8 2.5-15 0.8-5.2 2.2-16.7 3.1-25.5 1.4-12.8 1.6-22.5 1.3-48.5-0.4-25.9-1-35.9-2.7-49-1.2-9.1-3.4-22.1-4.8-29-1.3-6.9-4-18.4-5.8-25.5-1.9-7.1-5.6-19.7-8.3-28-2.7-8.2-6.6-19.1-8.6-24-2-4.9-4.1-9.9-4.5-11-0.5-1.1-4.7-9.9-9.4-19.5-4.7-9.6-9.9-19.7-11.5-22.5-1.6-2.7-5-8.6-7.7-13-2.7-4.4-8.1-12.8-12.2-18.7-4-6-12-16.8-17.7-24-5.6-7.3-17.1-20.6-25.5-29.5-8.3-9-15.7-16.6-16.5-17-0.8-0.5-4.3-3.5-7.8-6.8-3.5-3.3-9-8.3-12.3-11.1-3.3-2.7-10-8.2-15-12-5-3.9-14.4-10.7-21-15.1-6.6-4.4-15.1-10-19-12.3-3.9-2.3-9.3-5.6-12-7.2-2.8-1.6-11.8-6.2-20-10.3-8.3-4-20.4-9.6-27-12.3-6.6-2.8-16.5-6.6-22-8.5-5.5-1.9-13.6-4.6-18-6-4.4-1.4-14.5-4.1-22.5-6.1-8-1.9-18.1-4.2-22.5-5.1-4.4-0.8-12.5-2.2-18-3-5.5-0.8-17-2.1-25.5-3-10.1-1-24.6-1.5-41.5-1.4-14.3 0.1-29.6 0.5-34 1z" class="s2" id="Path 4"></path>
		<path d="m338 307.3c0.1 0.6-8.2 9.2-18.2 19.1-10.1 9.8-38.9 38.2-64.2 63-25.2 24.8-55 54.1-66.2 65.1l-20.4 20c260.4 260.4 336.4 336.1 337 336.3 0.5 0.1 23.7-22.4 51.4-50.1 27.7-27.6 103.5-103.3 168.5-168.2l118.1-118c-26.1-25.6-54.5-53.5-80-78.5-25.5-25-56.6-55.5-69-67.7l-22.5-22.3c-300.4 0-334.5 0.3-334.5 1.2z" class="s1" id="Path 5"></path>
		<path d="m341.4 331.3c-2.8 2.9-22.8 22.6-44.5 43.9-21.7 21.3-39.1 38.9-38.6 39.2 0.4 0.4 3.7-1.3 7.5-3.7 3.7-2.4 9.4-6.1 12.7-8.2 3.3-2.1 8.5-5.4 11.5-7.3 3-2 8.4-5.4 12-7.7 3.6-2.3 10.7-6.8 15.8-10.1 5.1-3.2 14.4-9.2 20.5-13.2 6.2-4 11.4-7.3 11.7-7.3 0.3 0 2.5-1.5 5-3.4 2.5-1.9 5-3.5 5.5-3.5 0.6 0 3.1-1.6 5.8-3.5 2.6-1.9 4.9-3.5 5.2-3.5 0.3 0 5.3-3.2 11.3-7 5.9-3.9 10.9-7 11.2-7 0.3 0.1 1.2-0.6 2-1.5 1.4-1.4-0.7-1.6-24-1.5l-25.5 0.1zm118.6-4.3c0 0.6 0.8 1.4 1.7 1.9 1 0.5 3.7 2.4 5.9 4.2 2.3 1.9 6.3 5 8.8 6.9 2.5 1.9 5.6 4.3 6.8 5.4 1.3 1 4.5 3.6 7.3 5.7 2.7 2.1 7.4 5.6 10.2 7.8 4.5 3.5 5.5 3.9 7 2.9 1-0.7 2.4-1.8 3.3-2.5 0.8-0.7 8.9-7 17.9-14 9-7 17.9-13.9 19.7-15.3 1.9-1.4 3.5-2.8 3.4-3.2 0-0.5-20.7-0.8-46-0.8-30 0-46 0.4-46 1zm156-0.2c0 0.4 3.5 2.8 7.8 5.5 4.2 2.6 12.9 8 19.2 12.1 6.3 4.1 15.5 10.1 20.5 13.3 4.9 3.2 10.1 6.4 11.5 7.1 1.4 0.8 4 2.4 5.7 3.8 1.8 1.3 3.5 2.4 3.8 2.4 0.3 0 2.6 1.6 5.2 3.5 2.7 1.9 5.2 3.5 5.8 3.5 0.5 0.1 3 1.6 5.5 3.5 2.5 1.9 4.9 3.5 5.5 3.5 0.5 0 3.1 1.6 5.7 3.5 2.7 1.9 5 3.5 5.3 3.5 0.3 0 3.1 1.7 6.2 3.8 3.2 2.1 7.9 5.3 10.5 7 2.7 1.8 5.1 3.2 5.5 3.2 0.5 0.1 2.8 1.5 5.3 3.3 2.5 1.8 5.7 3.9 7.2 4.7 1.5 0.9 3 1.3 3.3 1 0.3-0.3-5.5-6.3-12.8-13.5-7.2-7.1-27.5-27-45-44.2l-31.7-31.3c-38.8 0-50 0.3-50 0.8zm-181.4 7.5c-0.3 0.6-0.7 2.1-1 3.2-0.2 1.1-4.4 13.3-9.1 27-4.7 13.8-9.3 27.3-10.2 30-0.9 2.8-3.1 9.2-4.9 14.3-1.9 5-3.4 9.8-3.4 10.5 0 0.6-1.5 5.3-3.4 10.2-1.8 5-3.8 10.7-4.5 12.8-0.6 2-1 3.9-0.9 4.2 0.2 0.3 2.8-1.4 5.9-3.7 3.1-2.4 12.1-9.3 20-15.4 7.9-6.1 15.1-11.9 15.9-12.8 0.8-0.9 1.9-1.6 2.5-1.6 0.5 0.1 1.7-0.7 2.5-1.6 0.8-0.9 5.5-4.7 10.5-8.5 4.9-3.7 9.9-7.6 11-8.6 1.1-1 3.1-2.6 4.5-3.6 1.4-1 4.1-3 6.1-4.5 1.9-1.5 5.9-4.4 8.7-6.4 2.9-2.1 5.3-4.2 5.4-4.7 0.1-0.5-3.3-3.5-7.6-6.8-4.3-3.2-9.3-6.9-11.1-8.3-1.8-1.4-5.2-4.1-7.7-6-2.5-1.9-8.8-6.7-13.9-10.6-5.2-4-10.1-7.9-10.9-8.8-0.8-0.9-2.1-1.7-2.8-1.6-0.7 0-1.4 0.6-1.6 1.3zm130.8 6.5c-5.5 4.2-11.8 9.1-14 10.7-2.1 1.7-7.3 5.7-11.5 9-4.2 3.3-9.9 7.8-12.6 10-2.6 2.2-4.9 4.2-5 4.5-0.1 0.3 2.5 2.5 5.8 5 3.3 2.5 7.7 5.9 9.8 7.5 2.1 1.7 8.2 6.4 13.6 10.5 5.3 4.1 13.4 10.4 18 14 4.6 3.6 10.7 8.3 13.5 10.5 2.9 2.2 7.8 6 11 8.5 3.1 2.5 7.2 5.7 9.1 7.2 1.9 1.4 5.2 4 7.4 5.8 2.2 1.7 4.3 3.1 4.7 3 0.5 0 0.2-1.9-0.6-4.2-0.8-2.4-2.6-7.9-4.2-12.3-1.5-4.4-4.1-11.6-5.7-16-1.6-4.4-3.5-10-4.2-12.5-0.7-2.5-2.5-8.1-4-12.5-1.5-4.4-4.2-12-6-17-1.7-4.9-4.4-12.6-6-17-1.5-4.4-3.3-10-4-12.5-0.7-2.5-1.8-5.7-2.4-7.2-0.6-1.6-1.4-2.8-1.9-2.8-0.4 0-5.2 3.5-10.8 7.8zm-157 1.2c-2.1 1.6-4.2 3-4.7 3-0.4 0-3.5 1.9-7 4.2-3.4 2.3-8.1 5.5-10.5 7-2.3 1.5-4.4 2.8-4.7 2.8-0.3 0-2.6 1.6-5.3 3.5-2.6 1.9-5 3.5-5.5 3.5-0.4 0-3.3 1.8-6.5 3.9-3.1 2.1-10.3 6.9-16 10.5-5.6 3.6-10.4 6.6-10.7 6.6-0.3 0-2.6 1.6-5.3 3.5-2.6 1.9-5 3.5-5.5 3.5-0.4 0-2.8 1.6-5.5 3.5-2.6 1.9-5 3.5-5.5 3.5-0.4 0-2.8 1.5-5.5 3.3-2.6 1.7-5.5 3.7-6.4 4.2-0.9 0.6-8.3 5.3-16.4 10.5-8.2 5.2-15.6 10-16.6 10.5-0.9 0.6-8.3 5.3-16.4 10.5-8.1 5.2-15.3 9.7-15.9 10-0.6 0.3-3.2 2-5.8 3.8-2.6 1.7-4.9 3.2-5.2 3.2-0.3 0-3.1 1.8-6.3 4l-5.7 4.1 154.9-0.6c3.6-9.3 5.1-13.6 5.6-15.5 0.5-1.9 3.4-10.7 6.5-19.5 3.1-8.8 6.3-18 7-20.5 0.7-2.5 4.1-12.4 7.5-22 3.4-9.6 6.5-18.8 6.9-20.5 0.4-1.6 2.2-7 4-12 1.7-4.9 3.5-10.3 3.9-11.9 0.4-1.6 0.7-3.1 0.6-3.3 0-0.1-1.8 1.1-4 2.7zm192 0.3c0.4 1.2 1.4 4.2 2.1 6.7 0.8 2.5 4.1 12.4 7.5 22 3.4 9.6 6.7 19.5 7.5 22 0.7 2.5 3.9 11.7 7 20.5 3.1 8.8 6 17.4 6.4 19 0.4 1.7 2.1 6.8 3.8 11.5 1.6 4.7 3.9 11.2 5 14.5l2 6c154.6 0.5 154.8 0.5 152.3-1.5-1.4-1.1-6.6-4.5-11.5-7.6-5-3.1-11.3-7.1-14-8.9-2.8-1.8-7.6-4.8-10.8-6.8-3.1-2.1-8.1-5.2-11-7.1-2.8-1.8-10.2-6.5-16.2-10.3-6.1-3.9-15.9-10.1-21.8-13.9-6-3.8-13.4-8.5-16.5-10.5-3.2-2-8.2-5.2-11.2-7.1-3-1.9-9-5.7-13.2-8.4-4.3-2.7-11.3-7.1-15.5-9.8-4.3-2.7-10.7-6.8-14.3-9.2-3.6-2.4-7.1-4.3-7.8-4.4-0.6 0-1.2-0.3-1.2-0.7 0-0.5-2.8-2.5-6.2-4.6-3.5-2.1-9.8-6-14.1-8.7-4.2-2.8-8-5-8.4-5-0.3 0-0.3 1 0.1 2.3zm-115 60.5c-11 8.6-21.3 16.6-22.9 17.7-1.5 1.1-3.2 2.5-3.9 3.1-0.6 0.6-3.6 3-6.6 5.3-3 2.3-9.6 7.3-14.5 11.1-5 3.7-9.7 7.5-10.5 8.4-0.8 1-2 1.7-2.5 1.6-0.6 0-1.7 0.7-2.5 1.6-0.8 0.9-4.8 4.1-8.8 7-3.9 3-7.2 5.6-7.2 5.9 0 0.3 45.1 0.5 100.2 0.5 98.8 0 100.3 0 98.3-1.9-1.1-1-9.7-7.8-19-15-9.4-7.3-17.7-13.7-18.5-14.4-0.8-0.7-6.4-5-12.5-9.7-6-4.7-12.1-9.4-13.6-10.5-1.5-1.1-9.7-7.5-18.3-14.2-8.6-6.8-15.9-12.3-16.4-12.2-0.4 0-9.7 7.1-20.8 15.7zm-278.4 82.7c0 0.3 61.1 61.5 135.7 136 74.7 74.5 136.1 135.5 136.5 135.5 0.5 0 0.2-1.5-0.6-3.2-0.7-1.8-2-4.9-2.9-6.8-0.8-1.9-3.2-7.5-5.1-12.5-2-4.9-3.6-9.3-3.6-9.7 0-0.5-1.5-4.3-3.4-8.5-1.9-4.3-5.1-12.1-7.1-17.3-2-5.2-4.8-12.2-6.2-15.5-1.4-3.3-3.2-7.8-4-10-0.7-2.2-2.7-7.1-4.2-11-1.6-3.8-4.1-9.9-5.6-13.5-1.5-3.6-3.4-8.3-4.2-10.5-0.7-2.2-2.8-7.4-4.4-11.5-1.7-4.1-4.6-11.1-6.5-15.5-1.9-4.4-3.4-8.3-3.4-8.7 0-0.5-1.5-4.5-3.4-9-1.9-4.6-4.7-11.4-6.2-15.3-1.5-3.8-3.1-7.4-3.6-8-0.5-0.5-0.8-1.6-0.8-2.2 0-0.7-1.5-5-3.4-9.5-1.9-4.6-4.7-11.4-6.2-15.3-1.5-3.8-3.1-7.4-3.6-8-0.5-0.5-0.8-1.8-0.8-2.7 0-1-1.5-5.3-3.4-9.5-1.9-4.3-4.7-10.9-6.2-14.8-1.5-3.8-3.1-7.4-3.6-8-0.5-0.5-0.8-1.7-0.8-2.5 0-0.8-1.1-4.1-2.5-7.2l-2.5-5.8c-127.1 0-164 0.2-164 0.5zm185 1c0 0.8 1.5 5 3.4 9.3 1.8 4.2 4.6 10.9 6.1 14.7 1.5 3.9 3.4 8.8 4.2 11 0.8 2.2 2.7 6.9 4.2 10.5 1.6 3.6 4.1 9.7 5.6 13.5 1.5 3.9 3.8 9.7 5.1 13 1.2 3.3 3.4 8.9 4.9 12.5 1.4 3.6 3.9 9.8 5.5 13.8 1.7 3.9 4.3 10.5 5.9 14.5 1.7 3.9 4.4 10.8 6.2 15.2 1.7 4.4 3.9 10 4.9 12.5 1 2.5 3.2 8.1 4.9 12.5 1.8 4.4 4.5 11.3 6.1 15.3 1.7 3.9 4.3 10.5 5.9 14.5 1.7 3.9 4.4 10.8 6.2 15.2 1.7 4.4 3.9 10 4.9 12.5 0.9 2.5 3 7.7 4.5 11.5 1.5 3.9 4.2 10.6 6 15 1.8 4.4 4.9 11.9 6.9 16.8 2 4.8 3.6 9 3.6 9.5 0 0.4 1.6 4.5 3.6 9.2 2 4.7 4.1 9.6 4.6 11 1 2.5 1 2.5 2.8-1.5 1-2.2 3.5-8.3 5.5-13.5 2-5.2 5.2-13.1 7.1-17.5 1.9-4.4 3.4-8.3 3.4-8.7 0-0.5 1.6-4.7 3.6-9.5 2-4.9 4.9-11.9 6.5-15.8 1.5-3.8 4.2-10.6 6-15 1.7-4.4 4.2-10.7 5.4-14 1.2-3.3 4.6-11.6 7.4-18.5 2.9-6.9 5.6-13.6 6-15 0.5-1.4 2.3-6.1 4-10.5 1.8-4.4 4.8-11.5 6.7-15.7 1.9-4.3 3.4-8.4 3.4-9 0-0.7 1.6-5.1 3.6-9.8 2-4.7 5.1-12 7-16.2 1.9-4.3 3.4-8.4 3.4-9 0-0.7 1.5-4.9 3.4-9.3 1.8-4.4 5-11.9 7-16.7 2-4.9 3.6-9.2 3.6-9.8 0-0.5 1.5-4.5 3.4-8.7 1.8-4.3 5-12.1 7.1-17.3 2-5.2 4.8-12.2 6.2-15.5 1.4-3.3 2.7-6.6 2.9-7.2 0.3-1-23-1.3-114.1-1.3-101.1 0-114.5 0.2-114.5 1.5zm247.4 3.3c-0.9 2.6-3.3 8.5-5.1 13.2-1.9 4.7-5 12.2-6.9 16.8-1.9 4.5-3.4 8.4-3.4 8.7 0 0.3-1.5 4.2-3.4 8.8-1.9 4.5-5.1 12.5-7.1 17.7-2.1 5.2-5.3 13.2-7.1 17.8-1.9 4.5-3.4 8.5-3.4 9 0 0.4-1 2.7-2.1 5.2-1.2 2.5-3.2 7.2-4.4 10.5-1.2 3.3-3.5 9.2-5 13-1.5 3.9-4 9.9-5.6 13.5-1.5 3.6-3.4 8.3-4.2 10.5-0.8 2.2-2.7 7.2-4.2 11-1.5 3.9-4.3 10.5-6.1 14.8-1.9 4.2-3.4 8.2-3.4 8.7 0 0.6-1.6 4.9-3.6 9.8-2 4.8-5.4 12.9-7.5 18-2.2 5-3.9 9.5-3.9 10 0 0.4-1.5 4.3-3.4 8.7-1.9 4.4-5.1 12.3-7.1 17.5-2.1 5.2-5 12.7-6.7 16.5-1.6 3.9-2.6 7.2-2.3 7.5 0.3 0.3 24.5-23.3 53.7-52.5 29.2-29.1 90.3-90.2 135.9-135.7 45.6-45.6 82.9-83 82.9-83.3 0-0.3-37.1-0.5-82.4-0.5h-82.5z" class="s2" id="Path 6"></path>
	</g>
</svg>